<svg xmlns="http://www.w3.org/2000/svg" viewBox="0 0 1200 900" role="img" aria-labelledby="title desc">
  <title id="title">Hybrid event operations preview</title>
  <desc id="desc">Two operations panels connected to a hub and audience nodes.</desc>
  <defs>
    <linearGradient id="bg" x1="0" x2="1" y1="0" y2="1">
      <stop offset="0" stop-color="#415247"/>
      <stop offset="1" stop-color="#ac793a"/>
    </linearGradient>
  </defs>
  <rect width="1200" height="900" fill="url(#bg)"/>
  <rect x="125" y="110" width="950" height="680" rx="34" fill="#f8f4eb" opacity=".96" stroke="#ffffff" stroke-width="3"/>
  <g stroke="#d8d0c3" stroke-width="2">
    <rect x="220" y="185" width="355" height="285" rx="14" fill="#ffffff"/>
    <rect x="625" y="185" width="355" height="285" rx="14" fill="#ffffff"/>
    <rect x="515" y="520" width="170" height="70" rx="10" fill="#ffffff"/>
  </g>
  <g fill="#b66732">
    <rect x="255" y="230" width="285" height="25" rx="6"/>
    <rect x="255" y="285" width="265" height="25" rx="6"/>
    <rect x="255" y="340" width="215" height="25" rx="6"/>
    <rect x="660" y="230" width="285" height="25" rx="6"/>
    <rect x="660" y="285" width="220" height="25" rx="6"/>
    <rect x="660" y="340" width="270" height="25" rx="6"/>
  </g>
  <path d="M575 325H625" stroke="#235f66" stroke-width="6"/>
  <g stroke="#235f66" stroke-opacity=".35" stroke-width="2" fill="#b66732">
    <path d="M600 555 855 615M600 555 815 662M600 555 680 695M600 555 520 695M600 555 385 662M600 555 345 615"/>
    <circle cx="855" cy="615" r="14"/><circle cx="815" cy="662" r="14"/><circle cx="680" cy="695" r="14"/>
    <circle cx="520" cy="695" r="14"/><circle cx="385" cy="662" r="14"/><circle cx="345" cy="615" r="14"/>
    <circle cx="600" cy="535" r="16"/>
  </g>
  <g stroke="#235f66" stroke-width="5" fill="none" opacity=".65">
    <path d="M320 470C400 555 480 585 600 555"/>
    <path d="M880 470C800 555 720 585 600 555"/>
  </g>
</svg>
