<svg xmlns="http://www.w3.org/2000/svg" viewBox="0 0 1200 900" role="img" aria-labelledby="title desc">
  <title id="title">Congress operations preview</title>
  <desc id="desc">Audience map and stakeholder routing lines for a large scientific congress.</desc>
  <defs>
    <linearGradient id="bg" x1="0" x2="1" y1="0" y2="1">
      <stop offset="0" stop-color="#194e58"/>
      <stop offset="1" stop-color="#b65a2e"/>
    </linearGradient>
  </defs>
  <rect width="1200" height="900" fill="url(#bg)"/>
  <rect x="125" y="110" width="950" height="680" rx="34" fill="#f8f4eb" opacity=".96" stroke="#ffffff" stroke-width="3"/>
  <g fill="#c45f34">
    <circle cx="600" cy="310" r="11"/><circle cx="556" cy="352" r="11"/><circle cx="600" cy="352" r="11"/><circle cx="644" cy="352" r="11"/>
    <circle cx="512" cy="394" r="11"/><circle cx="556" cy="394" r="11"/><circle cx="600" cy="394" r="11"/><circle cx="644" cy="394" r="11"/><circle cx="688" cy="394" r="11"/>
    <circle cx="468" cy="436" r="11"/><circle cx="512" cy="436" r="11"/><circle cx="556" cy="436" r="11"/><circle cx="600" cy="436" r="11"/><circle cx="644" cy="436" r="11"/><circle cx="688" cy="436" r="11"/><circle cx="732" cy="436" r="11"/>
    <circle cx="424" cy="478" r="11"/><circle cx="468" cy="478" r="11"/><circle cx="512" cy="478" r="11"/><circle cx="556" cy="478" r="11"/><circle cx="600" cy="478" r="11"/><circle cx="644" cy="478" r="11"/><circle cx="688" cy="478" r="11"/><circle cx="732" cy="478" r="11"/><circle cx="776" cy="478" r="11"/>
    <circle cx="380" cy="520" r="11"/><circle cx="424" cy="520" r="11"/><circle cx="468" cy="520" r="11"/><circle cx="512" cy="520" r="11"/><circle cx="556" cy="520" r="11"/><circle cx="600" cy="520" r="11"/><circle cx="644" cy="520" r="11"/><circle cx="688" cy="520" r="11"/><circle cx="732" cy="520" r="11"/><circle cx="776" cy="520" r="11"/><circle cx="820" cy="520" r="11"/>
    <circle cx="336" cy="562" r="11"/><circle cx="380" cy="562" r="11"/><circle cx="424" cy="562" r="11"/><circle cx="468" cy="562" r="11"/><circle cx="512" cy="562" r="11"/><circle cx="556" cy="562" r="11"/><circle cx="600" cy="562" r="11"/><circle cx="644" cy="562" r="11"/><circle cx="688" cy="562" r="11"/><circle cx="732" cy="562" r="11"/><circle cx="776" cy="562" r="11"/><circle cx="820" cy="562" r="11"/><circle cx="864" cy="562" r="11"/>
    <circle cx="292" cy="604" r="11"/><circle cx="336" cy="604" r="11"/><circle cx="380" cy="604" r="11"/><circle cx="424" cy="604" r="11"/><circle cx="468" cy="604" r="11"/><circle cx="512" cy="604" r="11"/><circle cx="556" cy="604" r="11"/><circle cx="600" cy="604" r="11"/><circle cx="644" cy="604" r="11"/><circle cx="688" cy="604" r="11"/><circle cx="732" cy="604" r="11"/><circle cx="776" cy="604" r="11"/><circle cx="820" cy="604" r="11"/><circle cx="864" cy="604" r="11"/><circle cx="908" cy="604" r="11"/>
  </g>
  <rect x="260" y="182" width="180" height="64" rx="8" fill="#ffffff" stroke="#d8d0c3" stroke-width="2"/>
  <rect x="940" y="182" width="180" height="64" rx="8" fill="#ffffff" stroke="#d8d0c3" stroke-width="2"/>
  <path d="M350 246 520 350 690 350 1030 246" fill="none" stroke="#235f66" stroke-width="4"/>
  <path d="M350 246 555 455 720 410 1030 246" fill="none" stroke="#235f66" stroke-width="3"/>
  <rect x="250" y="677" width="700" height="50" rx="8" fill="#ffffff" stroke="#d8d0c3" stroke-width="2"/>
  <rect x="285" y="692" width="120" height="20" rx="5" fill="#c45f34"/>
  <rect x="440" y="692" width="246" height="20" rx="5" fill="#c45f34"/>
  <rect x="750" y="692" width="212" height="20" rx="5" fill="#c45f34"/>
</svg>
